<svg width="512" height="512" viewBox="0 0 512 512" fill="none" xmlns="http://www.w3.org/2000/svg">
<rect x="40" y="92.25" width="432" height="310.922" rx="28.2662" fill="#F9F9F9"/>
<path d="M261.482 339.807C236.216 339.807 216.566 331.666 202.529 315.384C188.493 298.915 181.475 276.27 181.475 247.448C181.475 228.172 184.656 211.328 191.02 196.918C197.57 182.507 206.74 171.465 218.531 163.792C230.508 155.932 244.358 152.001 260.078 152.001C268.687 152.001 276.922 153.124 284.782 155.37C292.83 157.616 299.661 160.143 305.275 162.95C310.89 165.757 313.697 167.254 313.697 167.441L311.17 180.916C311.17 180.729 308.457 179.325 303.029 176.705C297.602 174.085 291.239 171.652 283.94 169.407C276.828 167.161 269.623 166.038 262.324 166.038C244.17 166.038 229.947 172.962 219.654 186.812C209.36 200.474 204.214 220.499 204.214 246.887C204.214 272.901 209.454 292.552 219.934 305.839C230.415 319.127 245.106 325.771 264.008 325.771C273.927 325.771 282.63 323.712 290.116 319.595C297.602 315.478 303.497 311.08 307.802 306.401C312.293 301.722 314.539 299.008 314.539 298.26L322.399 307.243C322.399 308.179 319.966 311.454 315.1 317.068C310.235 322.496 303.216 327.642 294.046 332.508C285.063 337.374 274.208 339.807 261.482 339.807Z" fill="#080808"/>
</svg>
